<svg width='200' height='200' fill="#C82606" xmlns:dc="http://purl.org/dc/elements/1.1/" xmlns:cc="http://creativecommons.org/ns#" xmlns:rdf="http://www.w3.org/1999/02/22-rdf-syntax-ns#" xmlns:svg="http://www.w3.org/2000/svg" xmlns="http://www.w3.org/2000/svg" xmlns:sodipodi="http://sodipodi.sourceforge.net/DTD/sodipodi-0.dtd" xmlns:inkscape="http://www.inkscape.org/namespaces/inkscape" version="1.1" x="0px" y="0px" viewBox="0 0 100 100"><g transform="translate(0,-952.36218)"><path style="font-size:medium;font-style:normal;font-variant:normal;font-weight:normal;font-stretch:normal;text-indent:0;text-align:start;text-decoration:none;line-height:normal;letter-spacing:normal;word-spacing:normal;text-transform:none;direction:ltr;block-progression:tb;writing-mode:lr-tb;text-anchor:start;baseline-shift:baseline;opacity:1;color:#000000;fill:#C82606;fill-opacity:1;stroke:none;stroke-width:6;marker:none;visibility:visible;display:inline;overflow:visible;enable-background:accumulate;font-family:Sans;-inkscape-font-specification:Sans" d="M 38.96875 9.9375 A 3.0003 3.0003 0 0 0 36 13 L 36 15 L 27 15 A 3.0003 3.0003 0 0 0 26.6875 15 A 3.0003 3.0003 0 0 0 24 18 C 24 23.05992 26.538173 27.560939 30.40625 30.28125 L 27.65625 36 L 12 36 C 8.1738921 36 5 39.17389 5 43 L 5 75 C 5 78.8261 8.1738921 82 12 82 L 15.4375 82 C 16.750501 86.605676 20.993965 90 26 90 C 31.006036 90 35.2495 86.605676 36.5625 82 L 63.4375 82 C 64.7505 86.605676 68.993964 90 74 90 C 79.006035 90 83.249499 86.605676 84.5625 82 L 88 82 C 91.826108 82 95 78.8261 95 75 L 95 63 C 95 60.2968 93.444271 57.9035 91.15625 56.75 C 90.630618 56.485 90.920599 56.64025 90.8125 56.59375 C 90.704401 56.54675 90.557785 56.48425 90.375 56.40625 C 90.009429 56.25035 89.511532 56.03815 88.90625 55.78125 C 87.695686 55.26755 86.089971 54.57925 84.5 53.90625 C 81.882574 52.79855 80.119927 52.042 79.28125 51.6875 L 74.21875 39.8125 C 73.089323 37.15799 70.474116 36 68 36 L 50.34375 36 L 47.59375 30.28125 C 51.461827 27.560939 54 23.05992 54 18 A 3.0003 3.0003 0 0 0 51 15 L 42 15 L 42 13 A 3.0003 3.0003 0 0 0 38.96875 9.9375 z M 30.59375 21 L 39 21 L 47.40625 21 C 46.174908 24.49625 42.94141 27 39 27 C 35.05859 27 31.825092 24.49625 30.59375 21 z M 35.90625 32.65625 C 36.910289 32.870145 37.93469 33 39 33 C 40.06531 33 41.089711 32.870145 42.09375 32.65625 L 43.71875 36 L 34.28125 36 L 35.90625 32.65625 z M 12 42 L 68 42 C 68.504988 42 68.763911 42.2624 68.71875 42.15625 L 74.25 55.15625 A 3.0003 3.0003 0 0 0 75.84375 56.75 C 75.84375 56.75 78.978079 58.0924 82.15625 59.4375 C 83.745336 60.1101 85.355377 60.76905 86.5625 61.28125 C 87.166061 61.53745 87.672182 61.75315 88.03125 61.90625 C 88.210784 61.98325 88.341064 62.05215 88.4375 62.09375 L 88.46875 62.09375 C 88.47185 62.09375 88.46535 62.124 88.46875 62.125 C 88.776067 62.2895 89 62.5828 89 63 L 89 75 C 89 75.6059 88.60589 76 88 76 L 84.5625 76 C 83.240021 71.408833 78.99566 68 74 68 C 69.00434 68 64.759979 71.408833 63.4375 76 L 36.5625 76 C 35.240021 71.408833 30.99566 68 26 68 C 21.00434 68 16.759979 71.408833 15.4375 76 L 12 76 C 11.394111 76 11 75.6059 11 75 L 11 43 C 11 42.39411 11.394111 42 12 42 z M 26 74 C 28.796969 74 31 76.203 31 79 C 31 81.797 28.796969 84 26 84 C 23.203032 84 21 81.797 21 79 C 21 76.203 23.203032 74 26 74 z M 74 74 C 76.796968 74 79 76.203 79 79 C 79 81.797 76.796968 84 74 84 C 71.203031 84 69 81.797 69 79 C 69 76.203 71.203031 74 74 74 z " transform="translate(0,952.36218)"/></g></svg>